<?xml version="1.0" encoding="UTF-8"?>
<!DOCTYPE svg PUBLIC "-//W3C//DTD SVG 1.1//EN" "http://www.w3.org/Graphics/SVG/1.1/DTD/svg11.dtd">
<svg xmlns="http://www.w3.org/2000/svg" xmlns:xlink="http://www.w3.org/1999/xlink" version="1.1" width="161px" height="362px" viewBox="-0.5 -0.5 161 362" style="background-color: rgb(255, 255, 255);"><defs><clipPath id="mx-clip-4-31-152-26-0"><rect x="4" y="31" width="152" height="26"/></clipPath><clipPath id="mx-clip-4-57-152-26-0"><rect x="4" y="57" width="152" height="26"/></clipPath><clipPath id="mx-clip-4-83-152-26-0"><rect x="4" y="83" width="152" height="26"/></clipPath><clipPath id="mx-clip-4-117-152-26-0"><rect x="4" y="117" width="152" height="26"/></clipPath><clipPath id="mx-clip-4-251-152-26-0"><rect x="4" y="251" width="152" height="26"/></clipPath><clipPath id="mx-clip-4-277-152-26-0"><rect x="4" y="277" width="152" height="26"/></clipPath><clipPath id="mx-clip-4-311-152-26-0"><rect x="4" y="311" width="152" height="26"/></clipPath><clipPath id="mx-clip-4-337-152-26-0"><rect x="4" y="337" width="152" height="26"/></clipPath></defs><g><path d="M 0 26 L 0 0 L 160 0 L 160 26" fill="rgb(255, 255, 255)" stroke="rgb(0, 0, 0)" stroke-miterlimit="10" pointer-events="all"/><path d="M 0 26 L 0 138 L 160 138 L 160 26" fill="none" stroke="rgb(0, 0, 0)" stroke-miterlimit="10" pointer-events="none"/><path d="M 0 26 L 160 26" fill="none" stroke="rgb(0, 0, 0)" stroke-miterlimit="10" pointer-events="none"/><g fill="rgb(0, 0, 0)" font-family="Helvetica" font-style="italic" text-anchor="middle" font-size="12px"><text x="79.5" y="17.5">Person</text></g><rect x="0" y="26" width="160" height="26" fill="none" stroke="none" pointer-events="all"/><g fill="rgb(0, 0, 0)" font-family="Helvetica" clip-path="url(#mx-clip-4-31-152-26-0)" font-size="12px"><text x="5.5" y="43.5">Name</text></g><rect x="0" y="52" width="160" height="26" fill="none" stroke="none" pointer-events="all"/><g fill="rgb(0, 0, 0)" font-family="Helvetica" clip-path="url(#mx-clip-4-57-152-26-0)" font-size="12px"><text x="5.5" y="69.5">Phone Number</text></g><rect x="0" y="78" width="160" height="26" fill="none" stroke="none" pointer-events="all"/><g fill="rgb(0, 0, 0)" font-family="Helvetica" clip-path="url(#mx-clip-4-83-152-26-0)" font-size="12px"><text x="5.5" y="95.5">Email Address</text></g><path d="M 0 108 L 160 108" fill="none" stroke="rgb(0, 0, 0)" stroke-miterlimit="10" pointer-events="all"/><rect x="0" y="112" width="160" height="26" fill="none" stroke="none" pointer-events="all"/><g fill="rgb(0, 0, 0)" font-family="Helvetica" clip-path="url(#mx-clip-4-117-152-26-0)" font-size="12px"><text x="5.5" y="129.5">Purchase Parking Pass</text></g><path d="M 0 246 L 0 220 L 160 220 L 160 246" fill="rgb(255, 255, 255)" stroke="rgb(0, 0, 0)" stroke-miterlimit="10" pointer-events="all"/><path d="M 0 246 L 0 358 L 160 358 L 160 246" fill="none" stroke="rgb(0, 0, 0)" stroke-miterlimit="10" pointer-events="none"/><path d="M 0 246 L 160 246" fill="none" stroke="rgb(0, 0, 0)" stroke-miterlimit="10" pointer-events="none"/><g fill="rgb(0, 0, 0)" font-family="Helvetica" text-anchor="middle" font-size="12px"><text x="79.5" y="237.5">Student</text></g><rect x="0" y="246" width="160" height="26" fill="none" stroke="none" pointer-events="all"/><g fill="rgb(0, 0, 0)" font-family="Helvetica" clip-path="url(#mx-clip-4-251-152-26-0)" font-size="12px"><text x="5.5" y="263.5">Student Number</text></g><rect x="0" y="272" width="160" height="26" fill="none" stroke="none" pointer-events="all"/><g fill="rgb(0, 0, 0)" font-family="Helvetica" clip-path="url(#mx-clip-4-277-152-26-0)" font-size="12px"><text x="5.5" y="289.5">Average Mark</text></g><path d="M 0 302 L 160 302" fill="none" stroke="rgb(0, 0, 0)" stroke-miterlimit="10" pointer-events="all"/><rect x="0" y="306" width="160" height="26" fill="none" stroke="none" pointer-events="all"/><g fill="rgb(0, 0, 0)" font-family="Helvetica" text-decoration="underline" clip-path="url(#mx-clip-4-311-152-26-0)" font-size="12px"><text x="5.5" y="323.5">Is Eligible To Enroll</text></g><rect x="0" y="332" width="160" height="26" fill="none" stroke="none" pointer-events="all"/><g fill="rgb(0, 0, 0)" font-family="Helvetica" clip-path="url(#mx-clip-4-337-152-26-0)" font-size="12px"><text x="5.5" y="349.5">Get Seminars Taken</text></g><path d="M 80 138 L 80 194.01" fill="none" stroke="rgb(0, 0, 0)" stroke-miterlimit="10" pointer-events="stroke"/><path d="M 80 219.01 L 72.65 206.51 L 80 194.01 L 87.35 206.51 Z" fill="rgb(0, 0, 0)" stroke="rgb(0, 0, 0)" stroke-miterlimit="10" pointer-events="all"/></g></svg>